<?xml version="1.0" encoding="UTF-8"?>
<!DOCTYPE svg PUBLIC "-//W3C//DTD SVG 1.1//EN" "http://www.w3.org/Graphics/SVG/1.1/DTD/svg11.dtd">
<!-- Creator: CorelDRAW -->
<svg xmlns="http://www.w3.org/2000/svg" xml:space="preserve" width="6.82666in" height="6.82666in" style="shape-rendering:geometricPrecision; text-rendering:geometricPrecision; image-rendering:optimizeQuality; fill-rule:evenodd; clip-rule:evenodd"
viewBox="0 0 6.82666 6.82666"
 xmlns:xlink="http://www.w3.org/1999/xlink">
 <defs>
  <style type="text/css">
   <![CDATA[
    .fil2 {fill:none}
    .fil0 {fill:#424242}
    .fil1 {fill:#FFFFFE;fill-rule:nonzero}
   ]]>
  </style>
 </defs>
 <rect class="fil0" width="6.82666" height="6.82666"/>
 <g id="Layer_x0020_1">
  <metadata id="CorelCorpID_0Corel-Layer"/>
  <path class="fil1" d="M3.99041 5.44958c0.00783858,0.00355512 0.0352638,0.0180906 0.0644291,0.0335472 0.031189,0.0165276 0.0645984,0.0342362 0.0649252,0.034374 0.415161,0.175516 0.749575,0.0737913 0.968425,-0.151059 0.131571,-0.135169 0.223433,-0.314654 0.268031,-0.506185 0.044622,-0.191634 0.041563,-0.393772 -0.0167165,-0.574138 -0.0974803,-0.301681 -0.355004,-0.544354 -0.810476,-0.571598l-0.0652244 -0.00390551 -0.0260236 -0.0598465c-0.115083,-0.26465 -0.175563,-0.638488 -0.238307,-1.02633 -0.121429,-0.75061 -0.252016,-1.55777 -0.786157,-1.55777 -0.53413,0 -0.664811,0.807512 -0.786299,1.55827 -0.0627323,0.387657 -0.123197,0.761276 -0.238142,1.02583l-0.026 0.0598465 -0.065248 0.00390551c-0.455441,0.0272402 -0.712988,0.269945 -0.810484,0.571669 -0.0564961,0.174827 -0.0610709,0.370252 -0.0205984,0.556803 0.0405118,0.186736 0.125661,0.362839 0.248559,0.498835 0.211681,0.234236 0.540646,0.350138 0.951445,0.191886 0.0129488,-0.00498819 0.0852874,-0.0390984 0.137831,-0.0638701 0.0271417,-0.0127992 0.0495276,-0.0233543 0.0555787,-0.0260945l0.0875039 0.194165c-0.0109724,0.0049685 -0.0296339,0.0137717 -0.052248,0.0244331 -0.0543465,0.025622 -0.129165,0.0609016 -0.151996,0.0696969 -0.507803,0.195618 -0.918579,0.0477835 -1.18562,-0.247713 -0.148886,-0.164756 -0.251406,-0.375169 -0.299386,-0.596339 -0.0480197,-0.22135 -0.0419331,-0.45526 0.0264252,-0.666803 0.117815,-0.364598 0.415622,-0.660445 0.932791,-0.713638 0.0898976,-0.238142 0.143811,-0.571291 0.199587,-0.915949 0.135524,-0.83748 0.281303,-1.73828 0.996299,-1.73828 0.71502,0 0.860697,0.900437 0.996157,1.73778 0.0557835,0.344831 0.109717,0.678177 0.199736,0.916445 0.517213,0.0531929 0.814996,0.348996 0.932799,0.713567 0.0704449,0.218008 0.0746969,0.459937 0.0217165,0.687469 -0.0530039,0.227626 -0.163669,0.442465 -0.323031,0.606185 -0.276197,0.283768 -0.692858,0.414417 -1.20343,0.198563 -0.012689,-0.0053622 -0.0483189,-0.024248 -0.0815866,-0.041878 -0.0254882,-0.0135079 -0.0494606,-0.0262126 -0.0527677,-0.0277126l0.0875039 -0.194165z"/>
  <path class="fil1" d="M2.841 5.29923c0.203394,0.27176 0.399705,0.423445 0.587366,0.429051 0.184555,0.00551181 0.376476,-0.132689 0.577063,-0.440165l0.178331 0.115835c-0.245394,0.376161 -0.499583,0.54465 -0.761228,0.536835 -0.258535,-0.00772047 -0.508547,-0.189398 -0.751531,-0.514051l0.17 -0.127504z"/>
  <path class="fil1" d="M4.49365 5.37836c0,0.0589094 0.0477598,0.106669 0.106669,0.106669 0.0589094,0 0.106669,-0.0477598 0.106669,-0.106669 0,-0.0774016 -0.0554882,-0.138299 -0.145193,-0.174177 -0.0604803,-0.0241929 -0.141311,-0.0391575 -0.228142,-0.0391575 -0.0868307,0 -0.167661,0.0149646 -0.228142,0.0391575 -0.0897047,0.035878 -0.145193,0.0967756 -0.145193,0.174177 0,0.0589094 0.0477598,0.106669 0.106669,0.106669 0.0589094,0 0.106669,-0.0477598 0.106669,-0.106669 0,-0.00191339 4.33071e-005,-0.00314567 0.000133858,-0.00383071l0.00160236 0.00399606c-0.000822835,-0.00372047 -0.00136614,-0.00582283 -0.00160236,-0.00399606l0.00160236 0.00399606c0.00183858,0.00835827 0.00506299,0.0248504 0.00928346,0.0231614 0.0360236,-0.0144094 0.0885354,-0.0233228 0.148976,-0.0233228 0.0604409,0 0.112953,0.00891339 0.148976,0.0233228 0.00422047,0.00168504 0.00744488,-0.0148071 0.00928346,-0.0231614l0.00160236 -0.00399606c-0.00023622,-0.00183071 -0.000783465,0.000275591 -0.00160236,0.00399606l0.00160236 -0.00399606c9.05512e-005,0.000685039 0.000133858,0.00191732 0.000133858,0.00383071z"/>
  <path class="fil1" d="M2.64913 5.37836c0,0.0589094 0.0477598,0.106669 0.106669,0.106669 0.0589094,0 0.106669,-0.0477598 0.106669,-0.106669 0,-0.0774016 -0.0554882,-0.138299 -0.145193,-0.174177 -0.0604803,-0.0241929 -0.141311,-0.0391575 -0.228142,-0.0391575 -0.0868307,0 -0.167661,0.0149646 -0.228142,0.0391575 -0.0897047,0.035878 -0.145193,0.0967756 -0.145193,0.174177 0,0.0589094 0.0477598,0.106669 0.106669,0.106669 0.0589094,0 0.106669,-0.0477598 0.106669,-0.106669 0,-0.00191339 4.33071e-005,-0.00314567 0.000133858,-0.00383071l0.00160236 0.00399606c-0.000822835,-0.00372047 -0.00136614,-0.00582283 -0.00160236,-0.00399606l0.00160236 0.00399606c0.00183858,0.00835827 0.00506299,0.0248504 0.00928346,0.0231614 0.0360236,-0.0144094 0.0885354,-0.0233228 0.148976,-0.0233228 0.0604409,0 0.112953,0.00891339 0.148976,0.0233228 0.00422047,0.00168504 0.00744488,-0.0148071 0.00928346,-0.0231614l0.00160236 -0.00399606c-0.00023622,-0.00183071 -0.000783465,0.000275591 -0.00160236,0.00399606l0.00160236 -0.00399606c9.05512e-005,0.000685039 0.000133858,0.00191732 0.000133858,0.00383071z"/>
 </g>
 <rect class="fil2" width="6.82666" height="6.82666"/>
</svg>
